<svg xmlns="http://www.w3.org/2000/svg" viewBox="0 0 64 64" width="64" height="64" role="img" aria-label="Atmen">
  <defs>
    <linearGradient id="g" x1="0" y1="0" x2="1" y2="1">
      <stop offset="0%" stop-color="#0077b6"/>
      <stop offset="55%" stop-color="#00b4d8"/>
      <stop offset="100%" stop-color="#06a77d"/>
    </linearGradient>
  </defs>
  <rect width="64" height="64" rx="14" fill="url(#g)"/>
  <!-- Lungs glyph + 'A' silhouette -->
  <path d="M20 18c-3 0-6 3-6 7v18c0 5 4 9 9 9h3v-7c-2-1-3-3-3-5V25c0-3-1-7-3-7zm24 0c3 0 6 3 6 7v18c0 5-4 9-9 9h-3v-7c2-1 3-3 3-5V25c0-3 1-7 3-7zM30 40h4v9h-4z"
        fill="#ffffff" opacity=".95"/>
  <path d="M28 14h8l4 18h-3l-1.5-7h-7L27 32h-3z" fill="#ffffff" opacity=".95"/>
</svg>
