<svg xmlns="http://www.w3.org/2000/svg" viewBox="0 0 1200 630" width="1200" height="630" role="img" aria-label="Respira Mejor — Dr. Robinson Robles, Neumólogo CDMX">
  <defs>
    <linearGradient id="bg" x1="0" y1="0" x2="1" y2="1">
      <stop offset="0%"   stop-color="#03045e"/>
      <stop offset="60%"  stop-color="#0077b6"/>
      <stop offset="100%" stop-color="#06a77d"/>
    </linearGradient>
    <radialGradient id="glow" cx="80%" cy="20%" r="60%">
      <stop offset="0%"  stop-color="#00b4d8" stop-opacity=".6"/>
      <stop offset="100%" stop-color="#00b4d8" stop-opacity="0"/>
    </radialGradient>
  </defs>
  <rect width="1200" height="630" fill="url(#bg)"/>
  <rect width="1200" height="630" fill="url(#glow)"/>

  <!-- Mark -->
  <g transform="translate(80,80)">
    <rect width="64" height="64" rx="14" fill="#ffffff"/>
    <path d="M20 18c-3 0-6 3-6 7v18c0 5 4 9 9 9h3v-7c-2-1-3-3-3-5V25c0-3-1-7-3-7zm24 0c3 0 6 3 6 7v18c0 5-4 9-9 9h-3v-7c2-1 3-3 3-5V25c0-3 1-7 3-7zM30 40h4v9h-4z"
          fill="#0077b6"/>
  </g>
  <text x="160" y="124" font-family="Plus Jakarta Sans, system-ui, sans-serif"
        font-size="28" font-weight="800" fill="#ffffff" letter-spacing="-.5">Respira Mejor</text>

  <!-- Headline -->
  <text x="80" y="280" font-family="Plus Jakarta Sans, system-ui, sans-serif"
        font-size="74" font-weight="800" fill="#ffffff" letter-spacing="-3">Neumología</text>
  <text x="80" y="370" font-family="Plus Jakarta Sans, system-ui, sans-serif"
        font-size="74" font-weight="800" fill="#caf0f8" letter-spacing="-3">basada en evidencia.</text>

  <text x="80" y="450" font-family="Plus Jakarta Sans, system-ui, sans-serif"
        font-size="30" font-weight="500" fill="#ffffff" opacity=".9">Dr. Robinson Robles · Investigador INER + Médica Sur</text>

  <!-- Stats -->
  <g transform="translate(80, 510)">
    <text x="0"   y="0"  font-family="Plus Jakarta Sans" font-size="44" font-weight="800" fill="#ffffff">h-7</text>
    <text x="0"   y="28" font-family="Plus Jakarta Sans" font-size="14" fill="#caf0f8" letter-spacing="2">Scholar h-index</text>

    <text x="220" y="0"  font-family="Plus Jakarta Sans" font-size="44" font-weight="800" fill="#ffffff">143</text>
    <text x="220" y="28" font-family="Plus Jakarta Sans" font-size="14" fill="#caf0f8" letter-spacing="2">Citas indexadas</text>

    <text x="440" y="0"  font-family="Plus Jakarta Sans" font-size="44" font-weight="800" fill="#ffffff">128</text>
    <text x="440" y="28" font-family="Plus Jakarta Sans" font-size="14" fill="#caf0f8" letter-spacing="2">Reseñas Doctoralia</text>
  </g>

  <!-- Decorative lung silhouette -->
  <g transform="translate(900,180)" opacity=".22" fill="#ffffff">
    <path d="M0 0c-30 0-60 30-60 70v180c0 50 40 90 90 90h30v-70c-20-10-30-30-30-50V70c0-30-10-70-30-70zm240 0c30 0 60 30 60 70v180c0 50-40 90-90 90h-30v-70c20-10 30-30 30-50V70c0-30 10-70 30-70zM110 320h40v90h-40z"/>
  </g>
</svg>
